<?xml version="1.0" standalone="no"?>
<!DOCTYPE svg PUBLIC "-//W3C//DTD SVG 20010904//EN"
 "http://www.w3.org/TR/2001/REC-SVG-20010904/DTD/svg10.dtd">
<svg version="1.0" xmlns="http://www.w3.org/2000/svg"
 width="1024.000000pt" height="1024.000000pt" viewBox="0 0 1024.000000 1024.000000"
 preserveAspectRatio="xMidYMid meet">
<metadata>
Created by potrace 1.11, written by Peter Selinger 2001-2013
</metadata>
<g transform="translate(0.000000,1024.000000) scale(0.100000,-0.100000)"
fill="#000000" stroke="none">
<path d="M4677 10084 c-3 -3 -38 -7 -79 -9 -40 -3 -105 -11 -143 -20 -72 -17
-266 -84 -275 -95 -3 -3 -27 -17 -53 -29 -158 -76 -416 -292 -562 -471 -20
-25 -44 -54 -53 -65 -64 -77 -252 -353 -252 -369 0 -3 -16 -30 -35 -61 -20
-30 -32 -55 -28 -55 4 0 3 -4 -3 -8 -10 -6 -151 -280 -154 -300 -1 -4 -11 -27
-22 -52 -11 -24 -21 -49 -23 -55 -1 -5 -9 -26 -17 -45 -28 -67 -52 -135 -50
-142 1 -5 -2 -8 -8 -8 -6 0 -9 -3 -8 -7 2 -7 -25 -103 -40 -143 -3 -8 -6 -17
-6 -20 -1 -3 -5 -11 -9 -17 -5 -7 -6 -13 -3 -13 3 0 1 -11 -4 -25 -5 -14 -12
-36 -15 -48 -2 -12 -9 -40 -15 -62 -6 -22 -13 -53 -15 -70 -7 -41 -13 -70 -15
-70 -1 0 -4 -11 -5 -25 -2 -14 -6 -38 -9 -55 -2 -16 -5 -33 -5 -37 -1 -3 -34
-16 -73 -28 -40 -12 -117 -35 -170 -51 -53 -17 -103 -31 -110 -33 -7 -1 -17
-4 -23 -8 -5 -3 -26 -9 -45 -13 -19 -4 -41 -11 -50 -16 -8 -4 -62 -22 -120
-39 -58 -18 -161 -50 -230 -73 -69 -22 -129 -42 -135 -43 -44 -9 -192 -71
-206 -85 -11 -11 -19 -16 -19 -13 0 9 -34 -35 -48 -61 -5 -11 -13 -38 -16 -60
-3 -22 -8 -51 -11 -65 -3 -14 -7 -45 -9 -70 -3 -25 -7 -61 -10 -80 -3 -19 -8
-55 -11 -80 -2 -25 -7 -56 -9 -70 -5 -27 -17 -125 -22 -180 -1 -19 -3 -35 -4
-35 -3 0 -10 -44 -15 -95 -3 -30 -7 -73 -10 -95 -3 -22 -8 -57 -11 -77 -3 -21
-7 -52 -9 -70 -3 -18 -7 -53 -10 -78 -3 -25 -8 -61 -10 -80 -6 -44 -12 -91
-20 -155 -3 -27 -11 -81 -16 -120 -6 -38 -12 -88 -15 -110 -2 -22 -6 -53 -9
-70 -2 -16 -7 -52 -11 -80 -4 -27 -8 -66 -9 -85 -2 -19 -4 -35 -5 -35 -2 0 -4
-11 -5 -25 -3 -40 -15 -133 -19 -155 -2 -11 -7 -47 -11 -80 -4 -32 -9 -68 -11
-80 -2 -11 -6 -42 -9 -70 -7 -72 -13 -123 -20 -164 -4 -20 -8 -52 -10 -71 -3
-19 -7 -55 -10 -80 -11 -78 -13 -94 -19 -145 -10 -86 -17 -139 -22 -165 -2
-14 -6 -50 -9 -80 -3 -30 -8 -66 -11 -80 -4 -14 -7 -38 -9 -55 -1 -16 -5 -53
-9 -81 -4 -28 -9 -68 -11 -90 -2 -21 -6 -50 -9 -64 -3 -14 -8 -52 -11 -85 -10
-92 -12 -108 -18 -140 -4 -16 -9 -55 -12 -85 -3 -30 -8 -66 -10 -80 -3 -14 -7
-47 -11 -75 -5 -48 -9 -76 -19 -147 -4 -32 -7 -59 -19 -158 -9 -73 -17 -133
-22 -160 -2 -14 -6 -45 -9 -70 -3 -25 -8 -63 -11 -85 -3 -22 -7 -51 -9 -65 -6
-50 -16 -136 -20 -160 -2 -14 -6 -47 -10 -75 -3 -27 -10 -79 -15 -115 -5 -36
-12 -87 -15 -115 -3 -27 -8 -65 -10 -82 -3 -18 -7 -48 -10 -65 -2 -18 -7 -55
-10 -83 -3 -27 -8 -63 -11 -80 -3 -16 -7 -46 -9 -65 -5 -49 -15 -130 -20 -160
-2 -14 -7 -50 -10 -80 -3 -30 -8 -66 -10 -80 -7 -50 -15 -106 -20 -150 -3 -25
-8 -62 -11 -82 -5 -37 -6 -46 -19 -148 -4 -30 -9 -58 -11 -61 -2 -4 49 -16
114 -28 145 -26 168 -30 212 -36 19 -3 46 -8 60 -11 13 -3 38 -7 55 -10 16 -2
41 -6 55 -9 14 -3 36 -7 50 -10 14 -2 66 -11 115 -20 50 -9 106 -18 125 -20
19 -3 46 -8 60 -11 13 -3 38 -7 55 -10 16 -2 41 -6 55 -9 53 -10 76 -14 115
-20 22 -4 63 -11 90 -16 28 -5 65 -11 84 -14 19 -2 57 -9 85 -14 77 -16 149
-28 201 -36 17 -2 66 -11 110 -19 44 -8 96 -18 115 -21 19 -3 59 -10 88 -15
29 -5 56 -9 60 -9 4 1 9 0 12 -1 10 -4 46 -10 165 -30 39 -6 88 -15 110 -20
22 -4 60 -11 85 -14 25 -3 56 -9 70 -12 36 -7 60 -12 105 -19 60 -10 93 -16
175 -31 41 -8 93 -16 115 -19 22 -3 51 -7 65 -10 50 -12 71 -15 97 -19 16 -2
44 -6 63 -10 19 -3 49 -8 65 -11 33 -6 193 -34 240 -41 38 -7 64 -12 90 -17
17 -4 74 -13 135 -22 8 -2 29 -5 45 -8 17 -3 71 -13 120 -21 50 -9 101 -18
115 -21 13 -2 40 -7 60 -10 19 -3 69 -12 110 -19 41 -8 78 -12 83 -9 4 2 7 0
7 -5 0 -5 10 -8 23 -7 12 1 36 -2 52 -6 27 -7 74 -16 130 -24 11 -2 49 -8 85
-15 36 -7 76 -13 90 -15 14 -2 63 -10 110 -19 47 -9 101 -18 120 -21 19 -3 46
-8 60 -10 52 -11 75 -15 115 -20 22 -3 47 -8 55 -10 8 -3 35 -7 59 -10 24 -3
47 -7 50 -10 4 -2 31 -6 61 -10 29 -3 57 -8 62 -11 5 -3 27 -7 51 -10 23 -2
53 -6 67 -9 13 -2 40 -7 60 -10 20 -3 47 -8 60 -10 14 -3 40 -8 59 -11 18 -3
43 -8 55 -10 11 -2 35 -6 51 -9 17 -3 44 -7 60 -11 17 -3 44 -7 60 -10 17 -3
71 -12 120 -21 50 -8 99 -17 110 -19 11 -2 32 -6 47 -9 37 -7 87 -15 118 -18
l25 -2 1 4381 0 4382 -45 -4 c-24 -2 -63 -10 -85 -19 -23 -8 -53 -17 -67 -19
-14 -2 -48 -12 -75 -21 -73 -26 -114 -34 -115 -24 -3 17 -6 28 -46 129 -58
147 -162 349 -185 358 -4 2 -8 8 -8 13 0 6 -15 29 -32 52 -198 252 -423 384
-688 402 -36 2 -75 6 -87 9 -13 3 -23 1 -23 -3 0 -24 -43 1 -98 56 -61 60
-160 133 -181 133 -6 0 -11 3 -11 8 0 18 -191 70 -284 77 -37 3 -72 7 -76 10
-4 2 -10 2 -13 -1z m128 -349 c42 -10 125 -47 125 -56 0 -7 -23 -20 -87 -53
-13 -6 -23 -14 -23 -18 0 -5 -6 -8 -14 -8 -8 0 -16 -3 -18 -7 -1 -5 -25 -26
-53 -48 -88 -69 -210 -188 -243 -237 -9 -13 -19 -25 -22 -28 -16 -12 -90 -118
-90 -128 0 -5 -4 -12 -9 -14 -11 -4 -91 -135 -91 -148 0 -6 -4 -10 -10 -10 -5
0 -10 -4 -10 -9 0 -5 -12 -30 -27 -57 -15 -27 -28 -55 -30 -62 -1 -8 -9 -22
-17 -31 -9 -10 -16 -22 -16 -27 0 -6 -12 -35 -26 -64 -39 -81 -46 -99 -59
-145 -4 -16 -11 -34 -15 -40 -14 -19 -101 -298 -114 -370 -6 -26 -18 -82 -22
-97 -4 -14 -57 -36 -129 -53 -5 -1 -17 -5 -25 -8 -13 -5 -122 -38 -142 -43 -5
-1 -10 -3 -13 -4 -3 -1 -8 -3 -12 -4 -5 -2 -28 -8 -53 -16 -25 -7 -49 -15 -55
-16 -5 -2 -39 -12 -75 -23 -177 -54 -334 -100 -336 -98 -1 1 4 27 12 57 9 30
17 63 19 73 2 9 6 21 9 25 3 5 7 19 10 33 3 13 15 51 26 84 12 33 23 65 24 70
2 6 7 19 11 30 4 11 21 54 37 95 36 92 48 120 106 240 25 52 46 97 46 100 1 3
13 26 29 52 15 26 27 51 27 57 0 6 5 11 10 11 6 0 10 5 10 12 0 6 20 44 45 84
25 39 45 75 45 78 0 7 10 20 38 51 6 7 12 18 12 24 0 6 5 11 10 11 6 0 10 5
10 11 0 10 41 69 68 97 6 7 12 16 12 20 0 4 16 24 35 45 18 20 32 37 29 37
-12 0 167 186 247 256 72 63 92 79 126 101 15 9 30 20 33 24 3 3 44 27 92 52
92 48 197 86 257 94 20 3 38 7 40 9 6 6 203 -3 236 -11z m742 -296 c90 -37
143 -65 183 -97 44 -35 140 -131 140 -139 0 -2 13 -21 29 -41 61 -76 127 -208
187 -371 13 -36 23 -65 21 -66 -1 -1 -29 -9 -62 -18 -82 -22 -244 -70 -337
-100 l-78 -25 -1 52 c-4 112 -17 291 -25 330 -3 12 -7 39 -10 61 -3 22 -9 60
-14 85 -5 25 -12 56 -14 70 -8 43 -36 142 -56 201 -11 30 -20 58 -20 62 0 10
26 8 57 -4z m-389 -15 c-4 -3 7 -38 23 -77 31 -74 73 -222 83 -292 4 -22 11
-65 16 -95 16 -87 23 -194 24 -339 l1 -135 -50 -15 c-27 -9 -52 -19 -53 -23
-2 -5 -7 -6 -12 -3 -7 4 -139 -32 -190 -52 -8 -3 -19 -7 -25 -9 -46 -13 -276
-85 -297 -93 -16 -6 -28 -8 -28 -5 0 4 -7 0 -17 -7 -9 -8 -19 -13 -22 -12 -7
3 -115 -28 -201 -57 -30 -10 -69 -21 -87 -25 l-32 -6 15 53 c21 69 63 197 74
223 117 272 123 285 133 285 5 0 6 4 3 9 -3 5 1 14 9 21 8 7 15 18 15 24 0 6
16 35 35 65 19 29 35 55 35 57 0 8 44 69 53 72 4 2 7 8 7 13 0 8 40 62 90 122
33 40 98 104 143 142 27 22 54 45 60 50 26 23 125 85 136 85 6 0 11 4 11 9 0
5 8 12 18 14 27 7 36 8 30 1z m-280 -2444 c6 0 18 0 25 1 10 0 67 -5 147 -15
54 -7 117 -19 165 -32 28 -7 61 -16 75 -20 66 -17 81 -28 75 -54 -3 -14 -8
-34 -10 -45 -2 -11 -4 -20 -5 -20 -1 0 -3 -7 -5 -15 -2 -8 -27 -100 -55 -205
-28 -104 -53 -198 -55 -208 -2 -10 -7 -27 -10 -37 -3 -10 -7 -27 -9 -37 -4
-16 -30 -114 -41 -153 -5 -15 -32 -119 -39 -150 -2 -8 -14 -53 -26 -100 -12
-47 -23 -90 -24 -97 -1 -7 -5 -16 -9 -19 -4 -4 -7 -15 -7 -25 0 -16 -5 -16
-59 6 -32 13 -69 27 -82 29 -13 3 -49 13 -79 21 -30 8 -66 18 -80 20 -14 3
-35 7 -47 10 -13 3 -32 7 -42 9 -38 9 -157 18 -236 19 -87 1 -290 -16 -290
-23 0 -2 -9 -4 -20 -5 -11 -2 -42 -10 -70 -20 -227 -78 -352 -245 -340 -454 4
-64 28 -136 60 -180 38 -54 170 -168 271 -236 65 -44 121 -83 122 -87 2 -5 8
-8 13 -8 5 0 50 -27 99 -60 49 -33 94 -60 99 -60 5 0 11 -4 13 -8 2 -4 33 -29
71 -55 37 -26 73 -51 80 -57 6 -5 39 -31 71 -58 127 -101 261 -244 343 -367
95 -142 181 -357 199 -500 3 -21 9 -59 14 -84 12 -68 10 -375 -4 -463 -7 -43
-10 -78 -8 -78 2 0 -1 -6 -7 -13 -6 -8 -8 -16 -6 -19 3 -3 1 -25 -5 -49 -6
-24 -13 -53 -15 -65 -3 -12 -16 -56 -30 -99 -23 -71 -36 -101 -83 -205 -20
-43 -103 -181 -118 -195 -5 -5 -23 -28 -39 -50 -36 -51 -190 -200 -246 -240
-50 -36 -108 -72 -129 -82 -8 -3 -26 -14 -40 -24 -14 -9 -29 -18 -35 -19 -5 0
-30 -10 -55 -21 -113 -51 -233 -83 -390 -105 -30 -4 -195 -15 -225 -15 -240 1
-475 38 -685 108 -112 38 -280 111 -292 128 -4 5 -8 7 -8 2 0 -4 -36 15 -81
43 -44 27 -85 50 -90 50 -5 0 -9 4 -9 8 0 4 -12 15 -28 24 -31 19 -59 41 -110
85 -20 17 -47 40 -59 50 l-22 19 25 100 c14 54 27 110 29 124 6 33 12 58 24
98 5 17 8 32 6 32 -3 0 0 11 5 26 6 14 12 39 15 57 3 18 8 40 11 49 3 9 6 25
8 35 2 10 21 86 41 168 20 83 37 158 38 168 1 9 4 17 8 17 4 0 40 -22 81 -48
40 -27 84 -55 98 -62 14 -7 27 -16 30 -19 25 -30 333 -169 435 -196 6 -1 13
-3 17 -5 123 -35 290 -48 381 -28 29 6 54 10 56 9 2 -2 7 1 10 6 3 4 23 17 45
28 21 11 51 34 68 50 35 35 92 115 82 115 -3 0 -1 7 6 16 16 19 37 126 34 174
-2 34 -7 67 -18 120 -8 36 -73 162 -103 196 -67 79 -155 161 -217 203 -12 8
-23 18 -26 21 -3 3 -21 17 -40 30 -19 13 -37 27 -40 30 -3 3 -12 10 -21 15 -9
6 -45 30 -79 55 -34 25 -70 50 -78 55 -21 14 -57 43 -159 130 -71 60 -181 182
-231 256 -63 93 -138 250 -129 270 1 3 -3 12 -9 20 -11 13 -34 99 -40 144 -1
11 -3 20 -4 20 -1 0 -3 8 -5 17 -23 122 -24 431 -1 558 3 14 7 42 10 62 3 21
11 57 16 80 6 24 13 54 16 67 7 33 61 189 80 231 74 164 180 338 254 418 16
18 30 35 30 37 0 7 134 138 189 185 58 50 197 149 221 157 8 4 22 11 30 18 29
23 128 73 134 68 3 -4 6 -1 6 6 0 7 5 9 10 6 6 -3 10 -1 10 4 0 6 6 11 13 11
7 0 33 10 57 21 24 12 49 22 54 24 6 1 24 7 39 13 15 7 40 15 55 18 15 4 32 9
37 13 6 3 15 7 20 8 6 1 37 9 70 18 178 47 305 68 475 81 47 3 86 7 87 8 1 1
55 1 120 -1 65 -1 124 -3 131 -3z"/>
<path d="M6982 8729 c1 -58 -1 -110 -6 -117 -4 -6 -4 -12 1 -12 4 0 8 -95 8
-210 0 -116 -4 -210 -8 -210 -5 0 -5 -5 -2 -10 10 -16 11 -470 2 -470 -5 0 -5
-5 -2 -10 10 -16 11 -470 2 -470 -5 0 -5 -5 -2 -10 9 -14 9 -505 1 -519 -4 -6
-4 -11 1 -11 4 0 8 -131 8 -290 0 -160 -4 -290 -8 -290 -5 0 -5 -5 -2 -10 9
-15 12 -230 3 -230 -4 0 -5 -7 -1 -15 9 -24 9 -385 0 -385 -5 0 -5 -5 -2 -10
10 -16 11 -630 2 -630 -5 0 -5 -5 -2 -10 9 -15 12 -230 3 -230 -4 0 -5 -7 -1
-15 9 -24 9 -385 0 -385 -5 0 -5 -5 -2 -10 9 -14 9 -665 1 -679 -4 -6 -4 -11
1 -11 4 0 8 -95 8 -210 0 -116 -4 -210 -8 -210 -5 0 -5 -5 -2 -10 10 -16 11
-470 2 -470 -5 0 -5 -5 -2 -10 10 -16 11 -470 2 -470 -5 0 -5 -5 -2 -10 9 -14
9 -505 1 -519 -4 -6 -4 -11 1 -11 4 0 8 -131 8 -290 0 -160 -4 -290 -8 -290
-5 0 -5 -5 -2 -10 9 -15 12 -230 3 -230 -4 0 -5 -7 -1 -15 9 -24 9 -385 0
-385 -5 0 -5 -5 -1 -12 4 -6 6 -42 5 -80 -1 -37 2 -68 7 -68 5 0 56 12 113 26
57 14 109 27 114 28 6 1 19 5 30 9 11 3 31 8 45 11 14 3 72 17 130 31 106 27
125 32 158 39 9 2 37 9 62 16 25 7 52 13 60 15 8 2 53 13 100 25 47 12 96 24
110 27 14 2 55 13 92 23 38 10 68 16 68 13 0 -3 7 0 15 7 9 7 18 10 22 7 3 -4
12 -2 20 4 7 6 13 9 13 5 0 -3 11 -1 25 4 14 5 38 12 53 15 32 5 191 45 212
52 8 3 22 7 30 8 8 1 47 10 85 20 39 9 77 18 85 20 8 2 16 4 18 5 1 2 7 4 12
5 6 1 13 4 18 5 4 1 11 2 15 1 4 -1 32 6 61 14 29 9 62 17 72 19 11 2 57 14
104 26 47 12 92 23 100 25 8 2 35 8 60 15 25 7 53 14 63 16 10 2 27 6 37 9 10
3 28 8 39 10 35 8 52 12 163 40 66 17 105 31 103 39 -4 10 -8 38 -20 126 -5
36 -20 137 -30 200 -3 19 -8 53 -11 75 -3 22 -7 51 -10 65 -3 14 -6 32 -6 40
0 8 -4 36 -9 62 -5 26 -11 69 -14 96 -3 27 -7 58 -9 69 -3 12 -7 43 -11 70 -7
49 -11 78 -19 123 -3 14 -7 45 -10 70 -3 25 -8 54 -10 65 -2 11 -7 43 -10 70
-13 88 -14 99 -27 175 -6 41 -13 84 -14 95 -1 11 -3 20 -4 20 -1 0 -4 20 -6
45 -2 25 -6 59 -9 75 -2 17 -8 53 -12 80 -3 28 -8 59 -10 70 -2 11 -7 34 -10
50 -3 17 -7 48 -9 70 -1 22 -5 51 -8 65 -4 14 -9 48 -13 75 -12 92 -14 105
-19 133 -3 15 -8 45 -10 67 -4 41 -8 66 -25 170 -6 33 -12 78 -15 100 -2 22
-6 54 -9 70 -3 17 -8 48 -11 70 -4 22 -8 51 -10 65 -2 14 -7 48 -10 75 -4 28
-8 57 -10 65 -4 14 -13 73 -20 130 -4 35 -14 105 -25 170 -14 84 -21 132 -26
170 -2 19 -6 50 -9 68 -3 17 -7 49 -10 70 -3 20 -7 46 -10 57 -2 11 -7 43 -10
71 -3 28 -8 61 -10 75 -3 13 -7 42 -10 64 -3 22 -7 51 -10 65 -3 14 -7 45 -10
70 -3 25 -7 56 -10 70 -3 14 -7 41 -10 60 -7 52 -26 181 -31 210 -4 26 -15
100 -20 135 -1 11 -3 20 -4 20 -1 0 -7 40 -14 105 -5 46 -15 109 -21 140 -3
14 -8 45 -11 70 -3 25 -8 56 -10 70 -2 14 -5 41 -8 60 -3 19 -7 49 -10 65 -2
17 -12 82 -21 145 -10 63 -19 126 -21 140 -3 14 -6 39 -9 55 -2 17 -4 30 -5
30 -1 0 -3 16 -5 35 -4 42 -13 107 -19 135 -2 11 -7 45 -11 75 -4 30 -9 64
-11 75 -2 10 -6 37 -9 60 -3 22 -8 51 -10 65 -5 26 -15 98 -21 140 -1 14 -5
41 -8 60 -3 19 -8 53 -11 75 -3 22 -7 51 -10 65 -3 14 -7 43 -11 65 -3 22 -7
56 -10 75 -3 19 -7 51 -9 70 -2 19 -6 46 -9 60 -6 34 -27 164 -31 192 -1 13
-5 41 -9 63 -3 22 -8 58 -11 80 -3 22 -7 54 -11 70 -3 17 -7 44 -9 60 -6 55
-15 120 -19 142 -4 20 -12 70 -21 138 -9 67 -16 111 -20 135 -3 14 -7 45 -11
70 -3 25 -7 52 -9 60 -2 8 -7 42 -11 75 -10 95 -46 136 -114 131 -14 -1 -33 2
-42 6 -11 5 -26 5 -37 -1 -10 -6 -21 -8 -24 -4 -4 3 -82 7 -174 8 -93 2 -231
4 -308 6 l-140 3 -89 85 c-163 158 -250 242 -379 368 l-127 125 2 -103z"/>
</g>
</svg>
